# xmcd
#
# Track frame offsets: 
#        150
#        16749
#        33719
#        55265
#        72446
#        106755
#        120467
#        148590
#        162685
#        183606
#
# Disc length: 2766 seconds
#
# Revision: 0
# Processed by: cddbd v1.5.1PL0 Copyright (c) Steve Scherf et al.
# Submitted via: ExactAudioCopy v0.95b2
#
DISCID=8c0acc0a
DTITLE=Sarosh Sami - Hey Ya!
DYEAR=2005
DGENRE=Pop
TTITLE0=Hey Ya
TTITLE1=Sehra Me
TTITLE2=Remembrance
TTITLE3=Echoes and Sound Of Dejection
TTITLE4=Obsession
TTITLE5=A Swinging Journey
TTITLE6=Witness To Marrige (Jhulelal)
TTITLE7=Serenade Of Love
TTITLE8=Peace Offering (Om Namah Shivaya)
TTITLE9=Bombay Theme
EXTD=
EXTT0=
EXTT1=
EXTT2=
EXTT3=
EXTT4=
EXTT5=
EXTT6=
EXTT7=
EXTT8=
EXTT9=
PLAYORDER=
